<svg width="38" height="46" viewBox="0 0 38 46" fill="none" xmlns="http://www.w3.org/2000/svg">
<path d="M5 2.944L22.6 2.944L22.6 5.824L19.24 5.824L19.24 6.432L18.568 5.824C19.9547 5.824 21.0213 6.24 21.768 7.072C22.536 7.904 22.92 9.056 22.92 10.528C22.92 12.2987 22.376 13.7067 21.288 14.752C20.2 15.7973 18.7173 16.32 16.84 16.32L5 16.32L5 13.44L16.52 13.44C17.7787 13.44 18.7387 13.0987 19.4 12.416C20.0827 11.7547 20.424 10.848 20.424 9.696C20.424 8.50133 20.0613 7.552 19.336 6.848C18.6107 6.16533 17.5653 5.824 16.2 5.824L5 5.824L5 2.944ZM4.744 28.7875C4.744 27.3795 5.01067 26.1635 5.544 25.1395C6.07733 24.1155 6.84533 23.3155 7.848 22.7395C8.872 22.1848 10.0773 21.9075 11.464 21.9075L16.136 21.9075C17.544 21.9075 18.7493 22.1848 19.752 22.7395C20.7547 23.3155 21.5227 24.1155 22.056 25.1395C22.5893 26.1635 22.856 27.3795 22.856 28.7875C22.856 30.1955 22.5893 31.4115 22.056 32.4355C21.5227 33.4595 20.7547 34.2488 19.752 34.8035C18.7493 35.3795 17.5547 35.6675 16.168 35.6675L11.464 35.6675C10.0773 35.6675 8.872 35.3795 7.848 34.8035C6.84533 34.2488 6.07733 33.4595 5.544 32.4355C5.01067 31.4115 4.744 30.1955 4.744 28.7875ZM7.304 28.7875C7.304 30.0462 7.656 31.0275 8.36 31.7315C9.064 32.4355 10.0987 32.7875 11.464 32.7875L16.136 32.7875C17.5013 32.7875 18.536 32.4355 19.24 31.7315C19.944 31.0275 20.296 30.0462 20.296 28.7875C20.296 27.5502 19.944 26.5688 19.24 25.8435C18.536 25.1395 17.5013 24.7875 16.136 24.7875L11.464 24.7875C10.0987 24.7875 9.064 25.1395 8.36 25.8435C7.656 26.5688 7.304 27.5502 7.304 28.7875Z" fill="white"/>
<line x1="33.5" y1="2.92126" x2="33.5" y2="35.9213" stroke="white" stroke-width="3"/>
</svg>
