<svg width="444" height="251" viewBox="0 0 444 251" fill="none" xmlns="http://www.w3.org/2000/svg">
  <path d="M13.249 199.19C13.249 206.501 12.8253 213.776 12.4712 221.079C12.2822 224.977 10.9592 231.327 13.8046 234.69C21.8183 244.161 33.8096 233.532 37.749 225.19C40.8048 218.719 45.6454 213.433 49.6935 207.634C53.3381 202.414 56.1452 197.667 59.1935 192.079C61.6142 187.641 60.1586 182.41 63.249 177.968C66.2172 173.701 68.4396 167.92 70.8046 163.19C84.1823 136.435 88.6962 106.816 102.749 80.1899C109.051 68.2484 117.249 54.0337 117.249 40.1343C117.249 35.4121 117.249 30.6899 117.249 25.9677C117.249 22.1966 118.408 16.1662 117.193 12.5232C116.339 9.95894 115.118 17.5194 114.249 20.0788C111.9 26.9953 109.006 32.8275 105.471 39.1899C100.704 47.7713 97.5991 58.4 97.1935 68.1343C96.5353 83.9298 95.5312 99.8348 96.3046 115.69C96.9395 128.706 96.3025 142.774 98.3601 155.634C100.736 170.485 119.203 156.788 124.36 152.634C132.845 145.799 139.606 137.559 145.249 128.19C150.246 119.894 151.002 110.62 154.305 101.745C157.125 94.1655 158.181 86.3331 161.027 78.7455C164.069 70.634 168.455 63.6597 173.693 56.7455C175.693 54.1063 177.379 51.2807 179.027 48.4121C179.761 47.1343 181.61 42.1596 181.027 46.6343C179.171 60.8634 173.518 74.3329 169.749 88.0788C166.848 98.6582 162.892 108.647 158.693 118.745C155.493 126.444 150.909 132.974 148.749 141.134C145.027 155.197 145.665 168.86 144.027 183.19C142.598 195.695 143.109 212.283 151.027 222.745C153.756 226.352 159.338 229.013 163.638 230.134C170.575 231.944 173.454 230.065 178.471 224.968C185.38 217.948 191.325 209.75 196.249 201.245C200.36 194.144 202.885 186.94 206.471 179.634C209.164 174.148 211.252 168.177 212.749 162.19C214.388 155.635 215.044 147.265 217.916 141.19C221.04 134.581 227.088 129.902 232.86 125.69C239.95 120.516 245.16 114.375 254.027 112.968C269.222 110.556 282.871 102.904 296.249 95.9677C303.227 92.3495 310.04 88.5679 316.805 84.5788C320.136 82.6138 322.74 80.3171 325.249 77.4121C326.419 76.0574 329.481 74.6736 330.027 72.9677C330.909 70.2117 325.743 71.6971 324.916 71.9121C316.226 74.1714 308.152 78.9946 299.749 82.1343C286.553 87.0649 272.935 88.6373 261.471 97.4121C254.1 103.054 247.459 109.024 242.916 117.245C238.457 125.313 237.774 135.207 233.471 143.412C227.128 155.508 222.013 166.23 220.027 179.634C217.847 194.348 228.807 203.61 241.249 209.745C249.088 213.611 260.262 213.806 268.805 213.079C277.02 212.38 286.16 211.845 294.249 210.19C311.028 206.758 326.666 201.049 343.693 198.968C363.287 196.573 381.494 181.019 396.471 169.412C404.064 163.528 412.811 159.641 420.305 153.69C423.18 151.406 427.281 147.19 431.249 147.19" stroke="#E4E4E4" stroke-width="24" stroke-dasharray="1463" stroke-linecap="round">
    <animate
      attributeName="stroke-dashoffset"
      values="1463; 0; 0; 0; 0; 0"
      keyTimes="0; 0.7; 0.7; 0.8; 0.9; 1"
      dur="5s"
      fill="freeze"
      calcMode="spline"
      keySplines="0.25 0.1 0.25 1;
                  0.42 0 0.58 1;
                  0.42 0 0.58 1;
                  0.42 0 0.58 1;
                  0.42 0 0.58 1"
    />
  </path>
</svg>